<?xml version="1.0" encoding="utf-8"?>
<!-- Generator: Adobe Illustrator 16.2.1, SVG Export Plug-In . SVG Version: 6.00 Build 0)  -->
<!DOCTYPE svg PUBLIC "-//W3C//DTD SVG 1.1//EN" "http://www.w3.org/Graphics/SVG/1.1/DTD/svg11.dtd">
<svg version="1.1" id="Layer_1" xmlns="http://www.w3.org/2000/svg" xmlns:xlink="http://www.w3.org/1999/xlink" x="0px" y="0px"
	 width="32px" height="32px" viewBox="0 0 32 32" enable-background="new 0 0 32 32" xml:space="preserve">
<g id="like">
	<path fill="#333333" d="M2.836,21.527c1.25,0.328,4.189,0.324,8.488,0.438c-0.203,0.938-0.25,1.784-0.25,3.286
		C11.074,28.84,13.688,32,16,32c1.633,0,2.979-1.335,3-2.977c0.021-2.015,0.645-5.492,4-7.256c0.246-0.131,0.95-0.478,1.053-0.522
		L24,21.2c0.525,0.452,1.253,0.8,2,0.8h3c1.654,0,3-1.346,3-3V3c0-1.654-1.346-3-3-3h-3c-1.189,0-2.186,0.719-2.668,1.727
		c-0.012-0.004-0.033-0.01-0.047-0.012c-0.066-0.018-0.145-0.037-0.239-0.062C23.027,1.648,23.02,1.646,23,1.641
		c-0.576-0.143-1.686-0.408-4.055-0.953C18.438,0.572,15.753,0,12.973,0H7.506C5.84,0,4.639,0.641,3.924,1.928
		c-0.01,0.021-0.24,0.469-0.428,1.076c-0.141,0.457-0.193,1.104-0.023,1.76c-1.074,0.738-1.42,1.854-1.645,2.58
		C1.451,8.535,1.564,9.43,1.826,10.07c-0.604,0.57-1.119,1.439-1.336,2.767c-0.135,0.822,0.01,1.668,0.389,2.372
		c-0.566,0.636-0.824,1.436-0.854,2.176l-0.012,0.209C0.006,17.725,0,17.807,0,18.094C0,19.357,0.875,20.968,2.836,21.527z M25,3
		c0-0.553,0.447-1,1-1h3c0.553,0,1,0.447,1,1v16c0,0.553-0.447,1-1,1h-3c-0.553,0-1-0.447-1-1V3z M2.023,17.465
		C2.043,16.971,2.25,16,4,16c1.5,0,2,0,2,0c0.277,0,0.5-0.224,0.5-0.5C6.5,15.225,6.277,15,6,15c0,0-0.438,0-1.938,0
		s-1.697-1.244-1.601-1.844C2.586,12.41,2.936,11,4.625,11C6.312,11,7,11,7,11c0.277,0,0.5-0.223,0.5-0.5C7.5,10.225,7.277,10,7,10
		c0,0-1.188,0-1.969,0c-1.688,0-1.539-1.287-1.297-2.055C4.053,6.936,4.248,6,6.375,6c0.719,0,1.631,0,1.631,0
		c0.277,0,0.5-0.223,0.5-0.5c0-0.275-0.223-0.5-0.5-0.5c0,0-0.693,0-1.568,0c-1.094,0-1.145-1.035-1.03-1.406
		C5.532,3.188,5.68,2.887,5.686,2.873C5.988,2.328,6.475,2,7.506,2h5.467c2.747,0,5.471,0.623,5.541,0.639
		c4.153,0.957,4.373,1.031,4.633,1.105c0,0,0.847,0.143,0.847,0.881L24,18.438c0,0.469-0.299,0.893-0.794,1.041
		c-0.062,0.024-0.146,0.051-0.206,0.076c-4.568,1.891-5.959,6.039-6,9.445c-0.006,0.479-0.375,1-1,1
		c-1.057,0-2.926-2.122-2.926-4.748c0-2.371,0.096-2.781,0.926-5.252c-10,0-9.93-0.145-10.812-0.375C2.094,19.312,2,18.406,2,18.094
		C2,17.751,2.01,17.801,2.023,17.465z"/>
	<path fill="#333333" d="M27.5,6C28.328,6,29,5.328,29,4.5S28.328,3,27.5,3S26,3.672,26,4.5S26.672,6,27.5,6z M27.5,4
		C27.775,4,28,4.225,28,4.5S27.775,5,27.5,5S27,4.775,27,4.5S27.225,4,27.5,4z"/>
</g>
</svg>
