<?xml version="1.0" encoding="iso-8859-1"?>
<!-- Generator: Adobe Illustrator 18.1.1, SVG Export Plug-In . SVG Version: 6.00 Build 0)  -->
<svg version="1.1" id="Capa_1" xmlns="http://www.w3.org/2000/svg" xmlns:xlink="http://www.w3.org/1999/xlink" x="0px" y="0px"
	 viewBox="0 0 56.532 56.532" style="enable-background:new 0 0 56.532 56.532;" xml:space="preserve">
<g>
	<g>
		<path style="fill:#010002;" d="M56.398,25.999c-0.456-1.409-1.945-2.416-4.307-2.911c-0.7-0.147-1.435-0.222-2.184-0.222
			c-2.862,0-5.651,1.063-8.256,2.268c-0.722-0.317-1.531-0.478-2.415-0.478c-0.857,0-1.648,0.154-2.246,0.316
			c-0.295-0.464-0.716-0.805-1.145-1.044c2.992-8.493,2.085-12.827,0.936-15.669c-0.905-2.237-3.771-4.353-5.895-4.353
			c-0.862,0-1.58,0.321-2.075,0.929c-0.703,0.861-0.871,2.218-0.499,4.033c0.999,4.879,0.367,6.257,0.277,6.419
			c-0.019,0.019-0.036,0.039-0.053,0.06c-2.184,2.62-4.966,6.518-6.011,8l-1.729-0.418c-0.315-0.077-0.646-0.004-0.902,0.195
			c-8.925,6.979-4.832,19.957-4.654,20.507c0.16,0.492,0.652,0.796,1.15,0.722c0.149,0.012,1.387,0.181,4.311,2.54
			c4.286,3.456,10.768,4.986,14.25,5.592c0.536,0.093,1.097,0.141,1.666,0.141c3.112,0,6.418-1.374,10.603-3.112l1.011-0.419
			c2.291-0.948,3.589-2.163,3.856-3.612c0.134-0.721-0.012-1.352-0.23-1.847c1.564-0.961,2.442-2.117,2.612-3.448
			c0.164-1.28-0.391-2.4-0.945-3.169c1.09-0.768,1.75-1.715,1.968-2.826c0.303-1.545-0.371-2.983-0.927-3.854
			C55.669,29.273,56.953,27.712,56.398,25.999z"/>
		<path style="fill:#010002;" d="M15.013,24.36c0.315-0.271,0.443-0.7,0.328-1.098s-0.453-0.693-0.863-0.754l-7.159-1.06
			c-0.267-0.039-0.54,0.025-0.762,0.18c-9.635,6.723-5.818,19.386-5.778,19.513c0.107,0.345,0.383,0.61,0.73,0.706l10.353,2.846
			c0.093,0.025,0.187,0.038,0.281,0.038c0.007-0.001,0.012-0.001,0.02,0c0.585,0,1.06-0.475,1.06-1.06
			c0-0.181-0.045-0.35-0.125-0.498C9.03,29.834,14.771,24.573,15.013,24.36z M7.452,38.343c-0.078,0.407-0.536,0.682-1.038,0.59
			l-1.599-0.305c-0.255-0.049-0.473-0.184-0.615-0.38c-0.086-0.119-0.179-0.311-0.134-0.55c0.067-0.353,0.42-0.608,0.839-0.608
			c0.065,0,0.132,0.006,0.199,0.019l1.597,0.305C7.195,37.508,7.532,37.925,7.452,38.343z"/>
	</g>
</g>
<g>
</g>
<g>
</g>
<g>
</g>
<g>
</g>
<g>
</g>
<g>
</g>
<g>
</g>
<g>
</g>
<g>
</g>
<g>
</g>
<g>
</g>
<g>
</g>
<g>
</g>
<g>
</g>
<g>
</g>
</svg>
